<?xml version="1.0" standalone="no"?>
<!DOCTYPE svg PUBLIC "-//W3C//DTD SVG 20010904//EN"
 "http://www.w3.org/TR/2001/REC-SVG-20010904/DTD/svg10.dtd">
<svg version="1.0" xmlns="http://www.w3.org/2000/svg"
 width="1078.000000pt" height="1078.000000pt" viewBox="0 0 1078.000000 1078.000000"
 preserveAspectRatio="xMidYMid meet">
<metadata>
Created by potrace 1.14, written by Peter Selinger 2001-2017
</metadata>
<g transform="translate(0.000000,1078.000000) scale(0.100000,-0.100000)"
fill="#000000" stroke="none">
<path d="M6197 10433 c-2 -5 -3 -2109 -3 -4678 l1 -4670 220 0 220 0 1 23 c1
13 4 2118 8 4678 l7 4654 -225 0 c-124 0 -227 -3 -229 -7z"/>
<path d="M5786 10421 c-3 -5 -57 -34 -118 -64 -373 -182 -933 -336 -1858 -511
-102 -20 -212 -40 -245 -45 -33 -6 -169 -28 -303 -51 -133 -22 -306 -49 -385
-60 -78 -11 -150 -23 -159 -26 -16 -5 -18 -22 -18 -175 l0 -169 33 -1 c17 0
73 -2 122 -4 50 -2 392 -6 761 -9 370 -3 687 -9 705 -12 187 -33 332 -132 402
-274 l32 -65 0 -3775 0 -3775 -23 -90 c-43 -168 -135 -319 -232 -380 -198
-125 -837 -204 -1648 -205 l-152 0 2 -197 3 -198 2688 -3 2687 -2 0 195 0 195
-1130 0 -1130 0 0 4855 c0 4221 -2 4855 -14 4855 -8 0 -17 -4 -20 -9z"/>
<path d="M6950 9782 l0 -209 43 -13 c43 -14 134 -50 197 -77 19 -8 44 -19 55
-23 11 -5 40 -17 65 -27 67 -27 409 -202 420 -214 3 -3 12 -8 20 -12 8 -4 38
-20 65 -37 28 -17 58 -33 68 -37 9 -3 17 -9 17 -14 0 -5 7 -9 15 -9 8 0 15 -4
15 -10 0 -5 7 -10 15 -10 8 0 15 -4 15 -10 0 -5 6 -10 13 -10 7 0 22 -8 33
-17 10 -10 31 -24 47 -32 15 -8 27 -18 27 -23 0 -4 7 -8 15 -8 8 0 15 -4 15
-10 0 -5 4 -10 10 -10 9 0 35 -19 65 -47 8 -7 16 -13 19 -13 6 0 36 -24 61
-47 8 -7 17 -13 22 -13 5 0 15 -9 23 -20 8 -11 19 -20 25 -20 6 0 17 -9 25
-20 8 -11 19 -20 25 -20 6 0 21 -10 32 -22 11 -13 44 -43 73 -68 130 -111 319
-295 410 -400 25 -28 62 -70 83 -92 21 -22 50 -57 65 -77 15 -20 33 -42 40
-49 7 -8 25 -30 40 -50 15 -21 29 -39 32 -42 3 -3 17 -21 30 -40 14 -19 28
-39 33 -45 30 -38 87 -120 87 -126 0 -4 6 -14 13 -21 7 -7 31 -42 52 -78 22
-36 42 -67 45 -70 3 -3 11 -15 18 -27 6 -13 18 -33 25 -45 6 -13 15 -25 18
-28 3 -3 26 -43 50 -90 24 -47 46 -87 49 -90 3 -3 15 -25 27 -50 96 -199 143
-301 143 -310 0 -5 10 -31 21 -57 12 -27 25 -57 29 -68 4 -11 12 -31 18 -45
15 -36 74 -200 76 -214 1 -6 15 -51 30 -100 16 -49 29 -94 31 -100 6 -29 17
-73 22 -86 4 -8 8 -26 10 -40 2 -14 8 -37 14 -51 5 -14 9 -30 7 -35 -1 -5 3
-29 9 -54 13 -48 43 -204 49 -254 2 -17 7 -49 10 -71 11 -74 13 -90 19 -145
12 -107 14 -126 21 -270 12 -236 7 -532 -12 -693 -2 -21 -6 -63 -9 -95 -3 -31
-8 -68 -10 -82 -2 -14 -9 -56 -15 -95 -12 -83 -14 -98 -41 -235 -11 -58 -24
-118 -29 -135 -5 -16 -11 -41 -14 -55 -3 -14 -9 -40 -15 -58 -5 -18 -9 -33 -9
-35 2 -4 -70 -243 -82 -272 -4 -11 -18 -49 -30 -85 -11 -36 -25 -74 -29 -85
-5 -11 -18 -45 -31 -75 -12 -30 -28 -68 -34 -85 -7 -16 -19 -45 -27 -64 -21
-52 -195 -398 -230 -460 -57 -97 -156 -254 -174 -275 -5 -6 -16 -23 -24 -39
-8 -15 -18 -27 -23 -27 -4 0 -8 -4 -8 -10 0 -9 -25 -44 -88 -127 -9 -12 -24
-31 -32 -43 -8 -12 -23 -32 -33 -43 -10 -12 -28 -35 -40 -50 -12 -16 -33 -41
-47 -57 -14 -15 -45 -52 -70 -81 -25 -29 -70 -79 -100 -110 -30 -31 -87 -90
-126 -130 -61 -64 -127 -125 -245 -229 -15 -14 -42 -37 -59 -53 -17 -15 -33
-27 -36 -27 -3 0 -15 -10 -28 -23 -27 -25 -40 -35 -121 -97 -33 -25 -61 -48
-63 -52 -2 -5 -10 -8 -18 -8 -8 0 -14 -4 -14 -10 0 -5 -6 -10 -14 -10 -8 0
-16 -4 -18 -8 -4 -11 -216 -152 -228 -152 -6 0 -10 -6 -10 -14 0 -14 17 -20
90 -31 172 -27 290 -62 290 -86 0 -5 5 -9 10 -9 6 0 21 -12 34 -27 l23 -26 31
19 c18 10 32 22 32 26 0 4 7 8 15 8 8 0 15 4 15 8 0 4 12 15 28 24 15 9 37 25
48 35 12 10 36 29 54 43 18 14 38 30 44 35 6 6 31 26 56 44 25 19 55 44 67 55
11 12 50 46 84 76 84 73 349 338 421 420 125 145 138 159 175 207 12 15 30 38
40 50 10 11 25 31 33 43 8 12 22 30 30 40 8 10 22 28 30 40 8 12 29 41 46 64
57 78 174 256 174 266 0 5 3 10 8 10 4 0 18 23 31 50 14 28 28 50 32 50 4 0 9
8 12 17 4 10 24 50 46 88 41 73 155 300 186 370 10 22 28 62 41 89 13 28 24
53 24 58 0 5 9 30 21 56 29 65 35 81 106 287 58 170 131 436 161 595 19 99 31
164 37 204 3 21 7 48 10 60 2 12 7 44 10 71 3 28 8 64 10 80 23 175 30 299 30
590 0 354 -9 526 -40 735 -3 19 -8 53 -11 75 -3 22 -8 54 -10 70 -7 40 -42
220 -54 270 -35 149 -64 266 -75 300 -7 22 -23 74 -35 115 -12 41 -28 91 -35
110 -8 19 -25 69 -40 110 -15 41 -31 86 -37 100 -6 14 -14 34 -18 45 -4 11
-20 46 -34 78 -14 32 -26 60 -26 63 0 18 -224 470 -241 484 -3 3 -8 12 -12 20
-4 8 -20 38 -37 65 -17 28 -38 65 -47 83 -9 17 -20 32 -25 32 -4 0 -8 5 -8 11
0 8 -121 195 -153 234 -4 6 -25 35 -47 65 -22 30 -43 60 -47 65 -5 6 -24 30
-43 55 -19 24 -39 50 -45 57 -5 7 -21 26 -35 43 -14 17 -36 44 -50 59 -14 16
-45 52 -70 81 -25 29 -72 81 -105 114 -33 34 -77 81 -97 104 -21 23 -38 40
-38 38 0 -3 -33 28 -74 67 -61 60 -110 104 -210 192 -6 6 -36 30 -66 55 -30
25 -57 47 -60 50 -3 3 -32 25 -65 50 -33 25 -66 50 -73 57 -7 7 -26 20 -42 30
-17 9 -30 21 -30 25 0 4 -7 8 -15 8 -8 0 -15 5 -15 10 0 6 -5 10 -10 10 -6 0
-20 8 -31 18 -10 11 -32 25 -47 33 -15 8 -36 22 -46 32 -11 9 -26 17 -33 17
-7 0 -13 4 -13 8 0 5 -12 15 -27 23 -16 8 -30 16 -33 19 -10 10 -65 41 -82 47
-10 3 -18 9 -18 14 0 5 -6 9 -14 9 -8 0 -16 3 -18 8 -3 7 -31 23 -153 86 -33
17 -62 33 -65 36 -6 6 -162 82 -227 111 -24 11 -62 28 -85 38 -83 37 -114 50
-203 84 -147 58 -260 97 -278 97 -15 0 -17 -20 -17 -208z"/>
<path d="M2323 9223 c-26 -20 -60 -46 -74 -57 -14 -12 -40 -32 -59 -46 -18
-14 -42 -33 -54 -43 -11 -11 -38 -33 -60 -50 -21 -18 -54 -47 -72 -65 -19 -18
-34 -31 -34 -29 0 3 -52 -46 -116 -107 -63 -61 -117 -110 -120 -107 -2 2 -4 0
-4 -6 0 -6 -38 -50 -85 -99 -47 -49 -85 -93 -85 -97 0 -5 -4 -5 -10 -2 -5 3
-10 1 -10 -5 0 -6 -6 -17 -13 -24 -6 -7 -32 -37 -57 -66 -25 -30 -52 -61 -60
-70 -8 -9 -19 -24 -25 -32 -5 -8 -56 -75 -111 -149 -81 -107 -202 -281 -246
-352 -151 -248 -308 -560 -401 -797 -57 -146 -99 -256 -101 -265 -1 -5 -15
-50 -30 -100 -54 -172 -65 -211 -91 -320 -32 -139 -36 -154 -41 -185 -2 -14
-7 -36 -10 -50 -3 -14 -8 -36 -10 -50 -2 -14 -6 -34 -9 -45 -2 -11 -7 -42 -11
-70 -3 -27 -8 -53 -10 -56 -2 -3 -6 -39 -10 -80 -3 -41 -8 -77 -10 -80 -2 -4
-6 -42 -10 -85 -3 -44 -8 -90 -11 -104 -9 -44 -11 -702 -2 -795 4 -49 11 -119
14 -155 3 -36 8 -78 10 -95 3 -16 6 -48 9 -70 11 -94 38 -256 62 -370 9 -38
17 -78 19 -89 3 -10 16 -62 30 -115 13 -53 28 -107 31 -121 12 -51 127 -400
151 -460 4 -8 7 -17 8 -20 5 -14 20 -50 38 -90 12 -25 21 -47 22 -50 0 -3 7
-16 15 -30 7 -14 13 -27 13 -30 -1 -6 123 -270 137 -290 5 -8 23 -42 40 -75
16 -33 43 -82 60 -110 16 -27 33 -57 37 -65 3 -8 19 -34 35 -57 15 -23 28 -44
28 -47 0 -3 42 -67 92 -142 51 -75 98 -143 103 -152 6 -9 18 -25 29 -36 10
-12 25 -32 34 -46 14 -21 67 -88 107 -136 6 -7 21 -27 34 -44 14 -18 38 -46
53 -62 16 -17 47 -53 71 -81 23 -27 65 -73 92 -102 28 -28 76 -79 108 -112 31
-34 57 -60 57 -58 0 2 24 -20 53 -48 74 -72 164 -153 211 -190 21 -18 55 -46
75 -62 20 -17 52 -43 73 -58 20 -15 42 -33 50 -40 7 -7 29 -24 48 -37 19 -13
40 -31 47 -40 7 -8 13 -11 13 -7 0 5 14 -3 31 -18 l32 -26 41 40 c85 82 139
98 344 100 113 1 130 13 67 47 -19 10 -35 22 -35 26 0 5 -3 7 -7 6 -11 -4
-113 64 -113 74 0 5 -4 7 -9 4 -5 -3 -20 6 -35 21 -14 14 -26 23 -26 19 0 -4
-6 -2 -12 4 -7 5 -40 30 -73 55 -66 50 -95 73 -159 125 -24 19 -54 44 -68 55
-111 87 -448 412 -448 433 0 7 -5 10 -10 7 -6 -3 -10 -2 -10 4 0 5 -17 27 -37
49 -21 22 -54 58 -73 81 -19 23 -52 61 -72 84 -21 23 -38 45 -38 48 0 3 -11
19 -25 35 -14 16 -38 47 -53 69 -15 22 -30 42 -34 43 -5 2 -8 10 -8 18 0 8 -4
14 -8 14 -4 0 -16 15 -27 32 -19 33 -28 46 -53 73 -7 8 -11 15 -7 15 4 0 0 7
-7 15 -31 34 -38 45 -31 45 4 0 3 4 -3 8 -12 8 -91 136 -142 232 -20 36 -45
81 -57 100 -26 42 -82 160 -173 360 -53 117 -163 418 -164 447 0 5 -4 15 -9
24 -15 28 -76 262 -109 419 -27 127 -59 319 -66 405 -3 39 -8 73 -10 76 -25
42 -24 956 1 999 1 3 6 36 10 73 3 37 8 76 10 85 1 9 6 37 9 62 6 47 32 190
40 225 2 11 12 54 21 95 26 123 122 457 147 510 6 14 13 32 14 40 12 61 217
526 239 542 5 4 6 8 1 8 -5 0 -4 6 2 13 5 6 29 50 53 97 24 47 53 99 65 115
11 17 24 37 27 46 7 20 176 282 187 289 4 3 13 16 20 29 14 26 14 27 60 81 16
19 30 38 30 42 0 4 6 13 13 20 7 7 28 33 47 58 19 25 39 50 45 56 5 6 26 30
45 53 52 63 118 137 183 205 32 34 79 82 103 108 24 26 44 46 44 44 0 -2 26
21 58 52 74 72 123 116 192 172 30 25 57 47 60 51 3 3 39 31 80 62 41 32 82
63 90 70 30 25 86 63 103 70 30 11 19 32 -19 34 -42 2 -127 42 -164 76 -38 35
-68 81 -82 126 -16 51 -32 52 -95 4z"/>
</g>
</svg>
